<svg width="31" height="30" viewBox="0 0 31 30" fill="none" xmlns="http://www.w3.org/2000/svg">
<path d="M17.0384 0.00184553C18.133 -0.00235466 19.2275 0.00864614 20.3218 0.0348445L20.6128 0.0453441C20.9488 0.0573437 21.2802 0.0723432 21.6807 0.0903425C23.2767 0.16534 24.3656 0.417332 25.3211 0.787819C26.3111 1.16881 27.1451 1.68479 27.979 2.51876C28.7416 3.26814 29.3317 4.17462 29.7085 5.17517C30.079 6.13064 30.3309 7.2211 30.4059 8.81705C30.4239 9.21603 30.4389 9.54902 30.4509 9.88501L30.4599 10.176C30.4866 11.2698 30.4981 12.3638 30.4944 13.4579L30.4959 14.5769V16.5418C30.4996 17.6364 30.4881 18.7309 30.4614 19.8252L30.4524 20.1162C30.4404 20.4522 30.4254 20.7836 30.4074 21.1841C30.3324 22.7801 30.0775 23.869 29.7085 24.8245C29.3329 25.8261 28.7426 26.7333 27.979 27.4824C27.229 28.2449 26.322 28.835 25.3211 29.2119C24.3656 29.5823 23.2767 29.8343 21.6807 29.9093C21.2802 29.9273 20.9488 29.9423 20.6128 29.9543L20.3218 29.9633C19.2275 29.99 18.133 30.0015 17.0384 29.9978L15.9194 29.9993H13.956C12.8614 30.003 11.7669 29.9915 10.6726 29.9648L10.3816 29.9558C10.0255 29.9429 9.66955 29.9279 9.31366 29.9108C7.71771 29.8358 6.62875 29.5808 5.67178 29.2119C4.67084 28.8359 3.7642 28.2456 3.01537 27.4824C2.25197 26.7329 1.66126 25.8258 1.28443 24.8245C0.913945 23.869 0.661954 22.7801 0.586956 21.1841C0.570251 20.8282 0.555251 20.4722 0.541958 20.1162L0.534458 19.8252C0.506804 18.7309 0.494303 17.6364 0.496959 16.5418V13.4579C0.492773 12.3638 0.503774 11.2698 0.529958 10.176L0.540458 9.88501C0.552457 9.54902 0.567457 9.21603 0.585456 8.81705C0.660454 7.2196 0.912445 6.13214 1.28293 5.17517C1.65998 4.17413 2.25185 3.2679 3.01687 2.52026C3.76519 1.75641 4.67126 1.16517 5.67178 0.787819C6.62875 0.417332 7.71621 0.16534 9.31366 0.0903425L10.3816 0.0453441L10.6726 0.0378446C11.7663 0.0102047 12.8604 -0.0022962 13.9545 0.00034569L17.0384 0.00184553ZM15.4964 7.50159C14.5027 7.48754 13.5162 7.67112 12.594 8.04167C11.6719 8.41223 10.8326 8.96236 10.1249 9.6601C9.41722 10.3578 8.85528 11.1893 8.47172 12.1061C8.08816 13.0229 7.89064 14.0068 7.89064 15.0006C7.89064 15.9944 8.08816 16.9783 8.47172 17.8951C8.85528 18.8119 9.41722 19.6433 10.1249 20.3411C10.8326 21.0388 11.6719 21.5889 12.594 21.9595C13.5162 22.3301 14.5027 22.5136 15.4964 22.4996C17.4855 22.4996 19.3931 21.7094 20.7996 20.303C22.206 18.8965 22.9962 16.9889 22.9962 14.9998C22.9962 13.0108 22.206 11.1032 20.7996 9.69671C19.3931 8.29024 17.4855 7.50159 15.4964 7.50159ZM15.4964 10.5015C16.0942 10.4905 16.6881 10.5987 17.2436 10.8198C17.799 11.0409 18.3049 11.3705 18.7315 11.7893C19.1582 12.2081 19.4971 12.7077 19.7285 13.2589C19.9599 13.8102 20.0791 14.402 20.0792 14.9998C20.0793 15.5977 19.9603 16.1895 19.729 16.7409C19.4978 17.2922 19.1591 17.7919 18.7326 18.2108C18.3061 18.6298 17.8004 18.9595 17.245 19.1808C16.6896 19.4021 16.0957 19.5105 15.4979 19.4997C14.3045 19.4997 13.16 19.0256 12.3161 18.1817C11.4722 17.3378 10.9981 16.1933 10.9981 14.9998C10.9981 13.8064 11.4722 12.6618 12.3161 11.818C13.16 10.9741 14.3045 10.5 15.4979 10.5L15.4964 10.5015ZM23.3712 5.25167C22.8873 5.27103 22.4297 5.47689 22.0941 5.8261C21.7586 6.17532 21.5712 6.64082 21.5712 7.1251C21.5712 7.60939 21.7586 8.07488 22.0941 8.4241C22.4297 8.77332 22.8873 8.97917 23.3712 8.99854C23.8684 8.99854 24.3453 8.801 24.697 8.44938C25.0486 8.09776 25.2461 7.62087 25.2461 7.1236C25.2461 6.62634 25.0486 6.14944 24.697 5.79782C24.3453 5.4462 23.8684 5.24867 23.3712 5.24867V5.25167Z" fill="#030301"/>
</svg>
