<svg width="35" height="28" viewBox="0 0 35 28" fill="none" xmlns="http://www.w3.org/2000/svg">
<path d="M34.052 3.28417C32.7995 3.83915 31.4541 4.21413 30.0396 4.38363C31.4991 3.51035 32.5909 2.1359 33.1115 0.51676C31.7403 1.33122 30.2396 1.90451 28.6747 2.2117C27.6223 1.08804 26.2283 0.343255 24.7093 0.0929854C23.1902 -0.157284 21.6311 0.100961 20.2738 0.827629C18.9166 1.5543 17.8372 2.70873 17.2033 4.11169C16.5694 5.51466 16.4164 7.08766 16.7681 8.58648C13.9897 8.44698 11.2717 7.72484 8.79048 6.46692C6.30926 5.20899 4.12026 3.4434 2.36556 1.28473C1.76558 2.3197 1.42059 3.51966 1.42059 4.79761C1.41992 5.94807 1.70323 7.0809 2.24538 8.0956C2.78753 9.1103 3.57176 9.9755 4.52849 10.6144C3.41894 10.5791 2.33387 10.2793 1.36359 9.73995V9.82994C1.36348 11.4435 1.92162 13.0074 2.94331 14.2563C3.96501 15.5052 5.38731 16.3621 6.9689 16.6817C5.93961 16.9603 4.86048 17.0013 3.81301 16.8017C4.25924 18.1901 5.12846 19.4042 6.29898 20.274C7.46949 21.1438 8.88271 21.6258 10.3408 21.6525C7.86562 23.5956 4.80881 24.6496 1.66208 24.6449C1.10467 24.6451 0.547736 24.6125 -0.00585938 24.5474C3.18825 26.6011 6.90642 27.6911 10.7038 27.6868C23.5583 27.6868 30.5856 17.0402 30.5856 7.80651C30.5856 7.50652 30.5781 7.20353 30.5646 6.90354C31.9315 5.91504 33.1114 4.69096 34.049 3.28867L34.052 3.28417Z" fill="#030301"/>
</svg>
