<svg width="1272" height="251" viewBox="0 0 1272 251" fill="none" xmlns="http://www.w3.org/2000/svg">
<g opacity="0.5">
<path fill-rule="evenodd" clip-rule="evenodd" d="M114.196 21.2052C116.432 22.3033 118.244 24.1101 119.347 26.3443C120.451 28.5786 120.785 31.115 120.297 33.5587L107.943 95.3714H169.485C171.651 95.3712 173.771 95.9936 175.593 97.1643C177.416 98.3351 178.863 100.005 179.763 101.975C180.663 103.945 180.978 106.132 180.67 108.276C180.362 110.42 179.445 112.43 178.027 114.067L80.1029 227.057C78.4692 228.939 76.259 230.229 73.8164 230.724C71.3737 231.22 68.8358 230.894 66.5976 229.797C64.3595 228.7 62.5468 226.894 61.4417 224.66C60.3367 222.426 60.0013 219.89 60.4879 217.445L72.8414 155.632H11.2999C9.13398 155.633 7.01368 155.01 5.19147 153.84C3.36926 152.669 1.92194 150.999 1.02186 149.029C0.121788 147.059 -0.19311 144.872 0.114671 142.728C0.422452 140.584 1.33994 138.574 2.75788 136.936L100.682 23.9471C102.316 22.0626 104.528 20.7717 106.972 20.2758C109.416 19.7798 111.956 20.1066 114.196 21.2052Z" fill="url(#paint0_linear_327_105)"/>
<path d="M213.092 158.737H235.777C237.419 173.415 251.686 183.064 271.189 183.064C289.87 183.064 303.316 173.415 303.316 160.174C303.316 148.678 295.207 141.801 276.013 137.079L256.819 132.46C229.618 125.891 216.993 113.163 216.993 92.5317C216.993 66.9734 239.266 49.4212 270.881 49.4212C302.187 49.4212 323.64 66.9734 324.358 92.5317H301.982C300.648 77.751 288.433 68.8209 270.573 68.8209C252.713 68.8209 240.498 77.8536 240.498 90.9921C240.498 101.462 248.299 107.62 267.391 112.342L283.711 116.345C314.094 123.53 326.719 135.745 326.719 157.403C326.719 185.117 304.651 202.463 269.546 202.463C236.7 202.463 214.529 185.527 213.092 158.737ZM437.267 92.0185V200H416.019V181.729H415.506C409.553 194.663 398.57 201.95 382.044 201.95C358.539 201.95 344.169 186.656 344.169 161.919V92.0185H366.34V157.608C366.34 174.031 374.141 182.858 389.435 182.858C405.447 182.858 415.096 171.773 415.096 154.939V92.0185H437.267ZM457.282 122.606C457.282 103.309 474.321 90.0683 499.572 90.0683C523.59 90.0683 540.424 103.515 541.143 122.709H520.306C519.279 112.958 511.376 106.902 498.956 106.902C486.946 106.902 478.94 112.753 478.94 121.272C478.94 127.944 484.278 132.46 495.466 135.232L513.634 139.44C535.394 144.675 543.606 152.886 543.606 168.796C543.606 188.504 525.233 202.053 498.751 202.053C473.192 202.053 456.256 188.812 454.511 169.002H476.477C478.222 179.369 486.228 185.117 499.777 185.117C513.121 185.117 521.332 179.574 521.332 170.849C521.332 163.972 517.226 160.174 505.936 157.3L486.639 152.578C467.136 147.857 457.282 137.695 457.282 122.606ZM567.317 66.4601H589.59V92.0185H610.119V109.571H589.59V169.104C589.59 178.445 593.696 182.653 602.729 182.653C604.987 182.653 608.58 182.448 610.017 182.14V199.692C607.553 200.308 602.626 200.719 597.699 200.719C575.836 200.719 567.317 192.404 567.317 171.568V109.571H551.612V92.0185H567.317V66.4601ZM664.521 184.295C680.02 184.295 692.132 173.62 692.132 159.558V151.039L665.547 152.681C652.306 153.605 644.813 159.456 644.813 168.694C644.813 178.137 652.614 184.295 664.521 184.295ZM658.362 201.848C637.217 201.848 622.437 188.709 622.437 169.309C622.437 150.423 636.909 138.824 662.57 137.387L692.132 135.642V127.328C692.132 115.319 684.023 108.134 670.474 108.134C657.643 108.134 649.637 114.292 647.687 123.941H626.748C627.979 104.438 644.608 90.0683 671.295 90.0683C697.469 90.0683 714.2 103.925 714.2 125.583V200H692.953V182.243H692.44C686.179 194.252 672.527 201.848 658.362 201.848ZM736.474 200V92.0185H758.645V200H736.474ZM747.56 76.2113C740.477 76.2113 734.729 70.5659 734.729 63.5861C734.729 56.5037 740.477 50.8582 747.56 50.8582C754.745 50.8582 760.493 56.5037 760.493 63.5861C760.493 70.5659 754.745 76.2113 747.56 76.2113ZM781.329 200V92.0185H802.474V110.084H802.987C808.838 97.7666 820.334 90.1709 836.963 90.1709C860.776 90.1709 874.428 105.362 874.428 130.099V200H852.154V134.41C852.154 118.193 844.558 109.263 829.162 109.263C813.56 109.263 803.501 120.348 803.501 137.079V200H781.329ZM933.653 184.295C949.152 184.295 961.264 173.62 961.264 159.558V151.039L934.68 152.681C921.439 153.605 913.946 159.456 913.946 168.694C913.946 178.137 921.747 184.295 933.653 184.295ZM927.495 201.848C906.35 201.848 891.569 188.709 891.569 169.309C891.569 150.423 906.042 138.824 931.703 137.387L961.264 135.642V127.328C961.264 115.319 953.156 108.134 939.607 108.134C926.776 108.134 918.77 114.292 916.82 123.941H895.88C897.112 104.438 913.74 90.0683 940.428 90.0683C966.602 90.0683 983.333 103.925 983.333 125.583V200H962.086V182.243H961.572C955.311 194.252 941.659 201.848 927.495 201.848ZM1062.37 201.848C1046.56 201.848 1034.35 194.149 1027.68 181.627H1027.26V200H1005.71V51.8847H1027.88V110.392H1028.39C1034.86 97.8692 1047.18 90.2735 1062.47 90.2735C1089.67 90.2735 1107.43 111.829 1107.43 146.009C1107.43 180.292 1089.77 201.848 1062.37 201.848ZM1056.42 108.955C1039.58 108.955 1027.78 123.735 1027.78 146.009C1027.78 168.488 1039.58 183.064 1056.42 183.064C1073.86 183.064 1084.64 168.899 1084.64 146.009C1084.64 123.325 1073.86 108.955 1056.42 108.955ZM1125.6 200V51.8847H1147.77V200H1125.6ZM1215.72 107.928C1200.22 107.928 1189.34 119.732 1188.21 136.053H1242.2C1241.69 119.527 1231.22 107.928 1215.72 107.928ZM1242.1 168.283H1263.14C1260.06 187.991 1241.38 202.053 1216.64 202.053C1184.93 202.053 1165.73 180.6 1165.73 146.522C1165.73 112.65 1185.23 90.0683 1215.72 90.0683C1245.69 90.0683 1264.37 111.213 1264.37 143.956V151.552H1188.11V152.886C1188.11 171.67 1199.4 184.09 1217.16 184.09C1229.78 184.09 1239.12 177.726 1242.1 168.283Z" fill="url(#paint1_linear_327_105)"/>
</g>
<defs>
<linearGradient id="paint0_linear_327_105" x1="90.3924" y1="20.0501" x2="90.3924" y2="230.95" gradientUnits="userSpaceOnUse">
<stop stop-color="#B2A7A7"/>
<stop offset="1" stop-color="#4E4C4C"/>
</linearGradient>
<linearGradient id="paint1_linear_327_105" x1="739.035" y1="200.59" x2="739.035" y2="43.5837" gradientUnits="userSpaceOnUse">
<stop stop-color="#414141"/>
<stop offset="1" stop-color="#B3A8A8"/>
</linearGradient>
</defs>
</svg>
